<?xml version="1.0" encoding="utf-8"?>
<!-- Generator: Adobe Illustrator 24.1.1, SVG Export Plug-In . SVG Version: 6.00 Build 0)  -->
<svg version="1.1" id="Layer_1" xmlns="http://www.w3.org/2000/svg" xmlns:xlink="http://www.w3.org/1999/xlink" x="0px" y="0px"
	 viewBox="0 0 3436.5 1000" style="enable-background:new 0 0 3436.5 1000;" xml:space="preserve">
<path d="M540.3,206.1c49.5,41.4,74.3,105.2,74.3,191.4c0,86.2-25.3,149.3-75.9,189.4C488.2,627,410.7,647,306.1,647H179.7v208h-120
	V202.1c0-32.1,26-58.1,58.1-58.1h186.3C412,144,490.8,164.7,540.3,206.1z M454.8,499.9c24.1-25.4,36.1-62.7,36.1-111.9
	c0-49.1-15.3-83.9-45.8-104.2c-30.5-20.3-78.3-30.5-143.4-30.5h0c-67.4,0-122,54.6-122,122V538h139.3
	C385.5,538,430.7,525.3,454.8,499.9z"/>
<path d="M755.7,855V214.6c0-39,31.6-70.6,70.6-70.6h49.4v597h324v114H755.7z"/>
<path d="M1905.8,756.8C1834,827,1745.1,862,1639.4,862s-194.6-35.1-266.4-105.3c-71.9-70.2-107.8-157.6-107.8-262.4
	s35.9-192.2,107.8-262.4c71.9-70.2,160.7-105.3,266.4-105.3s194.6,35.1,266.4,105.3c71.9,70.2,107.8,157.6,107.8,262.4
	S1977.7,686.6,1905.8,756.8z M1817.9,311.9c-48.5-50.2-108-75.3-178.5-75.3c-70.5,0-130,25.1-178.5,75.3
	c-48.5,50.2,130.3,110.6,130.3,182.1c0,71.5-178.8,132.8-130.3,183c48.5,50.2,108,75.3,178.5,75.3c70.5,0,130-25.1,178.5-75.3
	c48.5-50.2,72.7-111,72.7-182.5C1890.6,422.9,1866.3,362.1,1817.9,311.9z"/>
<path d="M2421.7,855h-122V574.3l-195.7-318.4c-30-48.9,5.1-111.7,62.5-111.7h0l143.3,238.6c23.1,38.4,78.7,38.4,101.8,0l143.3-238.6
	h0c57.4,0,92.5,62.9,62.5,111.7l-195.7,318.4V855z"/>
<path d="M3344.2,374.9c0,117.3-51.2,191.2-153.6,221.7L3376.7,855h-152.5l-169.8-239h-157.6v239h-120V203.3
	c0-32.8,26.6-59.3,59.3-59.3h205.1c108.5,0,186.1,18.3,232.9,54.9S3344.2,294.2,3344.2,374.9z M3184.3,475.5
	c24.4-21,36.6-54.7,36.6-101.1c0-46.4-12.5-78.2-37.6-95.5c-25.1-17.3-69.8-25.9-134.1-25.9h-18.9c-73.7,0-133.5,59.8-133.5,133.5
	V507h149.4C3113.8,507,3159.9,496.5,3184.3,475.5z"/>
</svg>
