<svg xmlns="http://www.w3.org/2000/svg" xmlns:xlink="http://www.w3.org/1999/xlink" id="Layer_1" x="0" y="0" version="1.1" viewBox="0 0 3902.2 1080.6" xml:space="preserve" style="enable-background:new 0 0 3902.2 1080.6"><g><path d="M345.7,448.4v160.4c0,58.1-47.1,105.1-105.1,105.1h0V448.4h-97.1v-81.9h300.6v81.9H345.7z"/><path d="M485.7,713.8V366.5H702v81.9H590.4V499h104.9v81.9H590.4V632H710v81.9H485.7z"/><path d="M1000.7,608.7c0,23.1-6.2,43.2-18.5,60.3c-12.4,17.1-29.7,29.9-52,38.3c-22.3,8.4-49.1,12.6-80.4,12.6c-0.4,0-0.7,0-1.1,0 c-54.6-0.2-98.7-44.8-98.7-99.4v-14.2c14.5,10.7,30.6,19.3,48.2,25.8c17.6,6.5,34,9.8,49.2,9.8c11.5,0,20.3-2.1,26.6-6.2 c6.3-4.1,9.4-10.1,9.4-18c0-5.7-1.6-10.6-4.7-14.9c-3.1-4.3-7.9-8.3-14.3-12c-6.4-3.7-18.2-8.8-35.5-15.3 c-55.9-21.5-83.8-56.2-83.8-104.2c0-33.6,12.8-60.4,38.3-80.5c25.5-20.1,59.7-30.2,102.7-30.2c12.1,0,23.3,0.5,33.4,1.5 c10.2,1,19.4,2.2,27.7,3.6l35,6.1v90.5c-29.2-16-58-24-86.2-24c-11.6,0-21,2.2-28.1,6.5c-7.1,4.4-10.7,10.3-10.7,17.9 c0,7.3,2.9,13.3,8.6,18c5.7,4.8,17.7,10.9,36,18.5c36,14.5,61.5,30.4,76.4,47.7C993.2,564.5,1000.7,585,1000.7,608.7z"/><path d="M1218.7,448.4v160.4c0,58.1-47.1,105.1-105.1,105.1h0V448.4h-97.1v-81.9h300.6v81.9H1218.7z"/><path d="M1358.7,713.8V366.5h104.6v242.7C1463.4,667,1416.5,713.8,1358.7,713.8L1358.7,713.8z"/><path d="M1849.7,713.8V523.4c0-17.9,0.6-37.6,1.7-59.1l0.7-16h-2.9c-5.2,27.3-9.1,46.2-11.9,56.7l-51.1,208.8h-98.3l-53.5-206.4 c-1.5-5.2-5.2-24.9-11.4-59.1h-2.9c2.3,54.3,3.4,88.2,3.4,101.7v163.7h0c-50.7,0-91.8-41.1-91.8-91.8V366.5h156.7l47.7,188.7 c1.1,3.9,2.6,11.7,4.5,23.6c1.9,11.9,3,21,3.5,27.5h1.5c1.8-14.7,4.6-32.1,8.5-52.1l44.6-187.7h154.3v244.2 C1952.9,667.6,1906.7,713.8,1849.7,713.8L1849.7,713.8z"/><path d="M2351.6,539.2c0,34.9-7.5,66.1-22.5,93.6c-15,27.5-36,48.9-63,64.2c-27,15.3-57.2,22.9-90.6,22.9c-32.6,0-62.3-7.4-89-22.2 c-26.7-14.8-47.5-35.5-62.4-62.3c-14.9-26.7-22.3-57-22.3-90.7c0-35.4,7.5-67.2,22.5-95.4c15-28.3,36.1-50.1,63.2-65.5 c27.1-15.4,58-23.1,92.5-23.1c33.3,0,63,7.4,89.3,22.2c26.2,14.8,46.5,35.9,60.8,63.2C2344.5,473.4,2351.6,504.5,2351.6,539.2z M2240.7,542.1c0-28.6-5.5-51.1-16.5-67.6c-11-16.5-26-24.7-45.1-24.7c-20.8,0-37.1,7.9-48.7,23.7c-11.6,15.8-17.4,38.2-17.4,67.1 c0,28.3,5.8,50.3,17.3,66.1c11.5,15.8,27.3,23.7,47.1,23.7c12.1,0,23-3.5,32.7-10.7c9.7-7.1,17.2-17.3,22.5-30.5 C2238,576.1,2240.7,560.3,2240.7,542.1z"/><path d="M2643.5,713.8l-122.6-167.6c-9.7-13.2-17.6-25.2-23.7-35.8h-1c1,17.1,1.5,36.3,1.5,57.6v48.9c0,53.5-43.4,96.9-96.9,96.9 l0,0V366.5h98.8l117.5,159.4c1.5,2.1,3.2,4.6,5.3,7.5c2.1,2.9,4.2,5.9,6.3,9c2.1,3.1,4.1,6.1,5.9,9c1.9,2.9,3.3,5.5,4.2,7.8h1 c-1-7.1-1.5-19.4-1.5-36.8V366.5l0,0c53.5,0,96.9,43.4,96.9,96.9V622C2735.3,672.7,2694.2,713.8,2643.5,713.8L2643.5,713.8z"/><path d="M2981.2,593.2v16c0,57.8-46.9,104.6-104.6,104.6h0V594.7l-107.1-228.2h120.1l37.5,109.2c2.6,7.4,4.4,13.9,5.5,19.4 c1,5.5,2.2,11.1,3.5,16.7h1c2.1-14.7,4.4-26.1,7-34.2l37.1-111.2h110.7L2981.2,593.2z"/><path d="M3453,565.6c0,102.9-50,154.3-149.9,154.3c-8.1,0-17.8-1-29.1-2.9c-11.3-1.9-22.8-4.8-34.4-8.7v-96.7 c8.2,5.7,17.4,10.2,27.5,13.7c10.1,3.5,18.4,5.2,25.1,5.2c18.7,0,32.7-5.8,42-17.3c9.3-11.5,13.9-29.4,13.9-53.7V366.5l0,0 c57.9,0,104.9,47,104.9,104.9V565.6z"/><path d="M3758.7,608.7c0,23.1-6.2,43.2-18.5,60.3c-12.4,17.1-29.7,29.9-52,38.3c-22.3,8.4-49.1,12.6-80.4,12.6c-0.4,0-0.7,0-1.1,0 c-54.6-0.2-98.7-44.8-98.7-99.4v-14.2c14.5,10.7,30.6,19.3,48.2,25.8c17.6,6.5,34,9.8,49.2,9.8c11.5,0,20.4-2.1,26.6-6.2 c6.3-4.1,9.4-10.1,9.4-18c0-5.7-1.6-10.6-4.7-14.9c-3.1-4.3-7.9-8.3-14.3-12c-6.4-3.7-18.2-8.8-35.5-15.3 c-55.9-21.5-83.8-56.2-83.8-104.2c0-33.6,12.8-60.4,38.3-80.5c25.5-20.1,59.7-30.2,102.7-30.2c12.1,0,23.3,0.5,33.4,1.5 c10.2,1,19.4,2.2,27.7,3.6c8.3,1.5,20,4.2,35,8.2v88.4c-29.2-16-58-24-86.2-24c-11.6,0-21,2.2-28.1,6.5 c-7.1,4.4-10.7,10.3-10.7,17.9c0,7.3,2.9,13.3,8.6,18c5.7,4.8,17.7,10.9,36,18.5c36,14.5,61.5,30.4,76.4,47.7 C3751.3,564.5,3758.7,585,3758.7,608.7z"/></g></svg>